<svg xmlns="http://www.w3.org/2000/svg" xmlns:xlink="http://www.w3.org/1999/xlink" width="1440" zoomAndPan="magnify" viewBox="0 0 1080 314.999992" height="420" preserveAspectRatio="xMidYMid meet" version="1.0"><defs><g/><clipPath id="feba72a42c"><path d="M 57.457031 67.085938 L 889 67.085938 L 889 224 L 57.457031 224 Z M 57.457031 67.085938 " clip-rule="nonzero"/></clipPath><clipPath id="fe53d59a01"><path d="M 114.023438 127.78125 L 222.046875 127.78125 L 222.046875 166.921875 L 114.023438 166.921875 Z M 114.023438 127.78125 " clip-rule="nonzero"/></clipPath></defs><g clip-path="url(#feba72a42c)"><path fill="#ffbf56" d="M 818.773438 67.082031 L 127.511719 67.082031 C 88.996094 67.082031 57.484375 102.28125 57.484375 145.304688 C 57.484375 188.324219 88.996094 223.527344 127.511719 223.527344 L 818.773438 223.527344 C 857.289062 223.527344 888.800781 188.324219 888.800781 145.304688 C 888.800781 102.28125 857.289062 67.082031 818.773438 67.082031 " fill-opacity="1" fill-rule="nonzero"/></g><path fill="#43217e" d="M 853.652344 114.261719 C 852.730469 113.074219 851.226562 112.449219 849.734375 112.632812 C 848.960938 112.730469 848.238281 113.035156 847.628906 113.511719 L 821.859375 133.757812 C 820.007812 135.214844 819.683594 137.917969 821.128906 139.78125 C 822.046875 140.96875 823.546875 141.59375 825.046875 141.40625 C 825.8125 141.3125 826.542969 141.007812 827.152344 140.53125 L 852.914062 120.28125 C 854.765625 118.828125 855.097656 116.125 853.652344 114.261719 " fill-opacity="1" fill-rule="nonzero"/><path fill="#43217e" d="M 768.601562 126.464844 L 748.4375 100.46875 C 747.511719 99.28125 746.011719 98.65625 744.523438 98.839844 C 743.75 98.9375 743.019531 99.238281 742.410156 99.71875 C 740.5625 101.175781 740.226562 103.875 741.675781 105.742188 L 761.847656 131.734375 C 762.765625 132.921875 764.265625 133.546875 765.761719 133.363281 C 766.53125 133.265625 767.253906 132.964844 767.867188 132.484375 C 769.722656 131.027344 770.050781 128.328125 768.601562 126.464844 " fill-opacity="1" fill-rule="nonzero"/><path fill="#43217e" d="M 805.390625 83.929688 C 805.035156 83.886719 804.683594 83.886719 804.339844 83.929688 C 802.378906 84.171875 800.851562 85.710938 800.613281 87.671875 L 796.652344 120.371094 C 796.371094 122.71875 798.042969 124.867188 800.382812 125.160156 C 800.734375 125.203125 801.085938 125.203125 801.429688 125.160156 C 803.390625 124.917969 804.921875 123.378906 805.160156 121.417969 L 809.121094 88.71875 C 809.398438 86.371094 807.726562 84.222656 805.390625 83.929688 " fill-opacity="1" fill-rule="nonzero"/><path fill="#43217e" d="M 768.707031 183.578125 C 767.785156 182.390625 766.285156 181.765625 764.792969 181.953125 C 764.019531 182.046875 763.289062 182.351562 762.683594 182.832031 L 736.914062 203.078125 C 735.066406 204.535156 734.738281 207.234375 736.179688 209.097656 C 737.105469 210.289062 738.605469 210.910156 740.101562 210.726562 C 740.867188 210.632812 741.59375 210.328125 742.207031 209.847656 L 767.972656 189.601562 C 769.824219 188.144531 770.152344 185.441406 768.707031 183.578125 " fill-opacity="1" fill-rule="nonzero"/><path fill="#43217e" d="M 750.222656 155.246094 L 717.742188 151.179688 C 717.394531 151.136719 717.035156 151.136719 716.695312 151.179688 C 714.734375 151.421875 713.203125 152.960938 712.964844 154.921875 C 712.679688 157.269531 714.351562 159.417969 716.695312 159.710938 L 749.171875 163.777344 C 749.519531 163.820312 749.875 163.820312 750.222656 163.777344 C 750.226562 163.777344 750.222656 163.777344 750.226562 163.777344 C 752.179688 163.535156 753.710938 161.996094 753.949219 160.035156 C 754.234375 157.6875 752.566406 155.539062 750.222656 155.246094 " fill-opacity="1" fill-rule="nonzero"/><path fill="#971975" d="M 942.289062 298 C 927.492188 309.203125 910.710938 314.453125 897.402344 312.039062 C 877.386719 308.402344 854.71875 298.90625 834.710938 290.527344 C 830.285156 288.675781 825.960938 286.863281 821.796875 285.171875 C 820.941406 284.824219 819.828125 284.40625 818.53125 283.921875 C 805.082031 278.890625 790.484375 272.652344 787.472656 262.226562 C 786.578125 259.132812 786.355469 254.34375 790.371094 249.089844 C 791.097656 248.140625 791.957031 247.285156 792.933594 246.546875 C 801.929688 239.734375 818.582031 243.605469 836.296875 248.546875 C 836.433594 248.582031 836.5625 248.617188 836.695312 248.652344 C 830.675781 240.863281 824.421875 233.042969 818.347656 225.441406 C 803.574219 206.960938 788.292969 187.84375 775.273438 167.867188 C 771.015625 161.324219 773.121094 151.785156 779.972656 146.59375 C 786.003906 142.027344 793.9375 142.179688 800.671875 146.992188 L 801.394531 147.511719 L 832.867188 188.871094 C 832.957031 184.816406 834.660156 181.246094 837.832031 178.84375 C 839.261719 177.761719 840.957031 176.945312 842.875 176.421875 C 850.1875 174.414062 856.609375 179.757812 859.035156 182.148438 C 860.527344 183.617188 861.96875 185.207031 863.378906 186.839844 C 862.183594 178.972656 865.808594 175.101562 867.746094 173.636719 C 873.554688 169.238281 882.316406 171.125 890.070312 178.445312 C 891.308594 179.609375 892.507812 180.828125 893.675781 182.066406 C 892.433594 177.507812 892.832031 172.78125 897.507812 169.242188 C 897.9375 168.914062 898.398438 168.609375 898.890625 168.332031 C 906.203125 164.171875 915.429688 166.242188 921.324219 173.367188 C 923.9375 176.527344 929.660156 183.238281 929.660156 183.238281 C 930.652344 184.429688 953.152344 211.472656 960.621094 225.117188 C 966.882812 236.542969 971.757812 253.851562 963.65625 272.53125 C 959.753906 281.515625 952.132812 290.546875 942.289062 297.996094 C 942.289062 297.996094 942.289062 298 942.289062 298 " fill-opacity="1" fill-rule="nonzero"/><path fill="#ffffff" d="M 904.160156 305.261719 C 902.277344 305.261719 900.449219 305.101562 898.722656 304.789062 C 879.5 301.296875 857.21875 291.964844 837.5625 283.734375 C 833.042969 281.839844 828.773438 280.054688 824.582031 278.351562 C 823.671875 277.976562 822.488281 277.539062 821.125 277.027344 C 813.234375 274.074219 796.796875 267.929688 794.566406 260.1875 C 793.941406 258.019531 794.488281 255.847656 796.242188 253.554688 C 797.90625 251.375 801.332031 250.269531 806.410156 250.269531 C 815.042969 250.269531 826.632812 253.5 834.304688 255.636719 C 836.945312 256.371094 839.214844 257.007812 840.882812 257.382812 C 841.25 257.464844 841.621094 257.507812 841.988281 257.507812 C 843.875 257.507812 845.558594 256.40625 846.476562 254.558594 C 847.441406 252.625 847.277344 250.351562 846.074219 248.765625 C 838.949219 239.40625 831.414062 229.972656 824.117188 220.851562 C 809.457031 202.503906 794.289062 183.535156 781.464844 163.851562 C 780.035156 161.65625 780.078125 158.5625 781.601562 155.777344 C 782.957031 153.285156 785.824219 150.621094 789.792969 150.621094 C 791.910156 150.621094 794.054688 151.371094 796.191406 152.855469 L 839.660156 209.996094 C 840.722656 211.363281 842.1875 212.109375 843.785156 212.109375 C 845.847656 212.109375 847.878906 210.847656 848.84375 208.960938 C 849.757812 207.171875 849.566406 205.167969 848.332031 203.46875 L 843.09375 196.585938 C 842.242188 195.367188 841.503906 194.269531 841.074219 193.1875 C 840.046875 190.589844 839.964844 188.195312 840.835938 186.449219 C 841.546875 185.042969 842.886719 184.058594 844.835938 183.523438 C 845.242188 183.414062 845.675781 183.355469 846.121094 183.355469 C 849.492188 183.355469 852.878906 186.4375 853.835938 187.382812 C 856.496094 190.007812 859.121094 193.214844 861.664062 196.316406 C 863.550781 198.625 865.511719 201.011719 867.449219 203.125 C 868.5625 204.328125 870.03125 204.996094 871.585938 204.996094 C 873.6875 204.996094 875.714844 203.757812 876.640625 201.925781 C 877.527344 200.175781 877.300781 198.195312 876.027344 196.480469 C 875.675781 196.019531 875.308594 195.546875 874.945312 195.09375 C 873.867188 193.730469 872.753906 192.316406 872.179688 190.90625 C 870.289062 186.265625 870.011719 182.421875 871.402344 180.355469 C 872.148438 179.253906 873.34375 178.691406 874.953125 178.691406 C 877.894531 178.691406 881.558594 180.554688 884.992188 183.796875 C 887.78125 186.425781 890.460938 189.453125 893.0625 192.382812 C 894.800781 194.335938 896.59375 196.359375 898.40625 198.25 C 899.558594 199.449219 901.039062 200.109375 902.589844 200.109375 C 904.582031 200.109375 906.40625 199.046875 907.355469 197.34375 C 908.3125 195.625 908.199219 193.5625 907.027344 191.6875 C 906.671875 191.121094 906.257812 190.484375 905.816406 189.8125 C 903.410156 186.136719 899.785156 180.585938 900.625 177.109375 C 900.863281 176.109375 901.496094 175.332031 902.542969 174.730469 C 903.929688 173.945312 905.394531 173.546875 906.921875 173.546875 C 910.035156 173.546875 913.285156 175.234375 915.621094 178.058594 C 918.234375 181.210938 923.972656 187.941406 924.027344 188.007812 C 924.25 188.269531 947.007812 215.628906 954.144531 228.648438 C 959.671875 238.75 963.300781 254.808594 956.886719 269.585938 C 953.148438 278.1875 945.25 287.105469 935.226562 294.046875 C 924.929688 301.171875 913.605469 305.261719 904.160156 305.261719 " fill-opacity="1" fill-rule="nonzero"/><path fill="#5d3898" d="M 140.109375 137.863281 L 144.347656 137.863281 L 144.347656 153.230469 L 151.773438 153.230469 L 151.773438 156.835938 L 140.109375 156.835938 Z M 140.109375 137.863281 " fill-opacity="1" fill-rule="nonzero"/><path fill="#5d3898" d="M 154.269531 137.863281 L 158.507812 137.863281 L 158.507812 156.835938 L 154.269531 156.835938 Z M 154.269531 137.863281 " fill-opacity="1" fill-rule="nonzero"/><path fill="#5d3898" d="M 166.570312 156.835938 L 160.585938 137.863281 L 165.214844 137.863281 L 167.484375 145.886719 C 168.121094 148.136719 168.703125 150.304688 169.148438 152.667969 L 169.230469 152.667969 C 169.703125 150.390625 170.285156 148.136719 170.921875 145.96875 L 173.304688 137.863281 L 177.792969 137.863281 L 171.503906 156.835938 Z M 166.570312 156.835938 " fill-opacity="1" fill-rule="nonzero"/><path fill="#5d3898" d="M 190.898438 148.8125 L 184.027344 148.8125 L 184.027344 153.316406 L 191.703125 153.316406 L 191.703125 156.835938 L 179.789062 156.835938 L 179.789062 137.863281 L 191.316406 137.863281 L 191.316406 141.382812 L 184.027344 141.382812 L 184.027344 145.324219 L 190.902344 145.324219 L 190.902344 148.8125 Z M 190.898438 148.8125 " fill-opacity="1" fill-rule="nonzero"/><g clip-path="url(#fe53d59a01)"><path fill="#5d3898" d="M 213.417969 166.917969 L 122.652344 166.917969 C 117.902344 166.917969 114.039062 162.992188 114.039062 158.167969 L 114.039062 136.527344 C 114.039062 131.703125 117.902344 127.78125 122.652344 127.78125 L 213.417969 127.78125 C 218.167969 127.78125 222.03125 131.703125 222.03125 136.527344 L 222.03125 158.167969 C 222.03125 162.992188 218.167969 166.917969 213.417969 166.917969 Z M 122.652344 129.085938 C 118.609375 129.085938 115.324219 132.425781 115.324219 136.527344 L 115.324219 158.167969 C 115.324219 162.273438 118.613281 165.609375 122.652344 165.609375 L 213.417969 165.609375 C 217.457031 165.609375 220.746094 162.273438 220.746094 158.167969 L 220.746094 136.527344 C 220.746094 132.425781 217.457031 129.085938 213.417969 129.085938 Z M 122.652344 129.085938 " fill-opacity="1" fill-rule="nonzero"/></g><path fill="#5d3898" d="M 133.167969 143.527344 C 133.414062 143.777344 133.636719 144.050781 133.828125 144.347656 C 134.023438 144.640625 134.1875 144.953125 134.320312 145.28125 C 134.453125 145.609375 134.554688 145.945312 134.625 146.292969 C 134.691406 146.640625 134.726562 146.992188 134.726562 147.347656 C 134.726562 147.703125 134.691406 148.054688 134.625 148.402344 C 134.554688 148.75 134.453125 149.089844 134.320312 149.414062 C 134.1875 149.742188 134.023438 150.054688 133.828125 150.351562 C 133.636719 150.644531 133.414062 150.917969 133.167969 151.167969 C 132.921875 151.417969 132.652344 151.644531 132.359375 151.839844 C 132.070312 152.039062 131.765625 152.203125 131.441406 152.339844 C 131.117188 152.476562 130.785156 152.578125 130.445312 152.648438 C 130.101562 152.71875 129.753906 152.75 129.40625 152.75 C 129.054688 152.75 128.710938 152.71875 128.367188 152.648438 C 128.027344 152.578125 127.691406 152.476562 127.371094 152.339844 C 127.046875 152.203125 126.742188 152.039062 126.449219 151.839844 C 126.160156 151.644531 125.890625 151.421875 125.644531 151.167969 C 125.398438 150.917969 125.175781 150.644531 124.984375 150.351562 C 124.789062 150.054688 124.625 149.742188 124.492188 149.417969 C 124.359375 149.089844 124.257812 148.75 124.1875 148.402344 C 124.121094 148.054688 124.085938 147.703125 124.085938 147.347656 C 124.085938 146.992188 124.121094 146.640625 124.1875 146.292969 C 124.257812 145.945312 124.359375 145.609375 124.492188 145.28125 C 124.625 144.953125 124.789062 144.640625 124.984375 144.347656 C 125.175781 144.050781 125.398438 143.777344 125.644531 143.527344 C 125.890625 143.277344 126.160156 143.050781 126.449219 142.855469 C 126.742188 142.660156 127.046875 142.492188 127.371094 142.355469 C 127.691406 142.21875 128.023438 142.117188 128.367188 142.046875 C 128.710938 141.980469 129.054688 141.945312 129.40625 141.945312 C 129.753906 141.945312 130.101562 141.980469 130.445312 142.046875 C 130.785156 142.117188 131.117188 142.21875 131.441406 142.355469 C 131.765625 142.492188 132.070312 142.660156 132.359375 142.855469 C 132.652344 143.050781 132.921875 143.277344 133.167969 143.527344 Z M 133.167969 143.527344 " fill-opacity="1" fill-rule="nonzero"/><path stroke-linecap="butt" transform="matrix(0.678046, 0, 0, 0.678046, 222.261956, 99.281477)" fill="none" stroke-linejoin="miter" d="M 21.332779 86.542 L 21.332779 30.515891 L 6.371359 30.515891 L 6.371359 99.999789 L 55.927821 99.999789 L 55.927821 86.542 Z M 65.738871 99.999789 L 80.700291 99.999789 L 80.700291 30.515891 L 65.738871 30.515891 Z M 145.627206 30.515891 L 125.699771 79.478966 L 105.772335 30.515891 L 88.984666 30.515891 L 117.305936 99.999789 L 133.995668 99.999789 L 162.322699 30.515891 Z M 223.994627 43.973679 L 223.994627 30.515891 L 170.509136 30.515891 L 170.509136 99.999789 L 223.994627 99.999789 L 223.994627 86.542 L 185.470556 86.542 L 185.470556 71.281007 L 220.365172 71.281007 L 220.365172 57.823218 L 185.470556 57.823218 L 185.470556 43.973679 Z M 289.814503 101.209607 C 306.832614 101.209607 316.828018 92.418261 316.828018 79.162109 C 316.828018 66.320752 306.930552 61.873229 291.963371 58.543348 C 281.224794 56.094906 277.076845 54.493338 277.076845 49.429384 C 277.076845 45.281435 280.92522 41.945793 287.296929 41.945793 C 293.968213 41.945793 300.950593 44.665004 307.126427 49.625259 L 314.903831 38.909726 C 307.840796 32.83759 299.026406 29.306073 287.694441 29.306073 C 272.531385 29.306073 262.011727 38.097419 262.011727 50.938776 C 262.011727 64.390803 272.433447 68.544513 287.101054 71.874394 C 297.71865 74.317074 301.76866 75.826467 301.76866 80.786722 C 301.76866 85.136307 297.914525 88.569886 290.436696 88.569886 C 281.645349 88.569886 274.161759 85.136307 267.57113 79.478966 L 258.975659 89.676006 C 267.075681 97.159596 277.791214 101.209607 289.814503 101.209607 Z M 345.558322 99.999789 L 360.519741 99.999789 L 360.519741 43.973679 L 382.152445 43.973679 L 382.152445 30.515891 L 323.902574 30.515891 L 323.902574 43.973679 L 345.558322 43.973679 Z M 450.916213 99.999789 L 433.828969 75.728529 C 443.340446 72.392887 449.608457 64.292866 449.608457 53.974844 C 449.608457 40.217482 438.472367 30.515891 423.41301 30.515891 L 392.176654 30.515891 L 392.176654 99.999789 L 407.040136 99.999789 L 407.040136 77.456841 L 418.055243 77.456841 L 433.932668 99.999789 Z M 407.040136 44.169555 L 421.80568 44.169555 C 429.191333 44.169555 434.226481 48.02369 434.226481 53.974844 C 434.226481 59.949042 429.191333 63.803177 421.80568 63.803177 L 407.040136 63.803177 Z M 514.224276 43.973679 L 514.224276 30.515891 L 460.738785 30.515891 L 460.738785 99.999789 L 514.224276 99.999789 L 514.224276 86.542 L 475.700205 86.542 L 475.700205 71.281007 L 510.594821 71.281007 L 510.594821 57.823218 L 475.700205 57.823218 L 475.700205 43.973679 Z M 576.524157 99.999789 L 593.317587 99.999789 L 564.990556 30.515891 L 548.300825 30.515891 L 519.979554 99.999789 L 536.669286 99.999789 L 541.116808 89.08838 L 572.082396 89.08838 Z M 546.2787 76.442898 L 556.596721 51.059758 L 566.920504 76.442898 Z M 602.097412 99.999789 L 616.960894 99.999789 L 616.960894 56.717099 L 638.518703 95.949778 L 659.94977 56.717099 L 659.94977 99.999789 L 674.916951 99.999789 L 674.916951 30.515891 L 659.94977 30.515891 L 638.518703 69.754331 L 616.960894 30.515891 L 602.097412 30.515891 Z M 602.097412 99.999789 " stroke="#5d3898" stroke-width="10.74655" stroke-opacity="1" stroke-miterlimit="4"/><g fill="#ffffff" fill-opacity="1"><g transform="translate(222.261956, 167.086081)"><g><path d="M 14.46875 -9.121094 L 14.46875 -47.113281 L 4.320312 -47.113281 L 4.320312 0 L 37.921875 0 L 37.921875 -9.121094 Z M 14.46875 -9.121094 "/></g></g></g><g fill="#ffffff" fill-opacity="1"><g transform="translate(262.031049, 167.086081)"><g><path d="M 4.800781 0 L 14.949219 0 L 14.949219 -47.113281 L 4.800781 -47.113281 Z M 4.800781 0 "/></g></g></g><g fill="#ffffff" fill-opacity="1"><g transform="translate(281.709893, 167.086081)"><g><path d="M 39.296875 -47.113281 L 25.785156 -13.921875 L 12.273438 -47.113281 L 0.890625 -47.113281 L 20.09375 0 L 31.410156 0 L 50.609375 -47.113281 Z M 39.296875 -47.113281 "/></g></g></g><g fill="#ffffff" fill-opacity="1"><g transform="translate(333.204011, 167.086081)"><g><path d="M 40.941406 -37.992188 L 40.941406 -47.113281 L 4.664062 -47.113281 L 4.664062 0 L 40.941406 0 L 40.941406 -9.121094 L 14.8125 -9.121094 L 14.8125 -19.476562 L 38.472656 -19.476562 L 38.472656 -28.597656 L 14.8125 -28.597656 L 14.8125 -37.992188 Z M 40.941406 -37.992188 "/></g></g></g><g fill="#ffffff" fill-opacity="1"><g transform="translate(377.155715, 167.086081)"><g/></g></g><g fill="#ffffff" fill-opacity="1"><g transform="translate(396.286025, 167.086081)"><g><path d="M 22.492188 0.824219 C 34.015625 0.824219 40.804688 -5.144531 40.804688 -14.128906 C 40.804688 -22.835938 34.082031 -25.855469 23.933594 -28.117188 C 16.664062 -29.761719 13.851562 -30.859375 13.851562 -34.289062 C 13.851562 -37.101562 16.457031 -39.363281 20.777344 -39.363281 C 25.304688 -39.363281 30.035156 -37.511719 34.21875 -34.152344 L 39.5 -41.421875 C 34.699219 -45.535156 28.734375 -47.9375 21.054688 -47.9375 C 10.765625 -47.9375 3.632812 -41.96875 3.632812 -33.261719 C 3.632812 -24.140625 10.699219 -21.328125 20.640625 -19.066406 C 27.84375 -17.417969 30.585938 -16.390625 30.585938 -13.03125 C 30.585938 -10.082031 27.980469 -7.75 22.90625 -7.75 C 16.9375 -7.75 11.863281 -10.082031 7.40625 -13.921875 L 1.578125 -6.996094 C 7.0625 -1.921875 14.332031 0.824219 22.492188 0.824219 Z M 22.492188 0.824219 "/></g></g></g><g fill="#ffffff" fill-opacity="1"><g transform="translate(439.689186, 167.086081)"><g><path d="M 16.871094 0 L 27.019531 0 L 27.019531 -37.992188 L 41.695312 -37.992188 L 41.695312 -47.113281 L 2.195312 -47.113281 L 2.195312 -37.992188 L 16.871094 -37.992188 Z M 16.871094 0 "/></g></g></g><g fill="#ffffff" fill-opacity="1"><g transform="translate(483.503772, 167.086081)"><g><path d="M 44.507812 0 L 32.917969 -16.457031 C 39.363281 -18.722656 43.617188 -24.207031 43.617188 -31.203125 C 43.617188 -40.53125 36.070312 -47.113281 25.855469 -47.113281 L 4.664062 -47.113281 L 4.664062 0 L 14.746094 0 L 14.746094 -15.292969 L 22.21875 -15.292969 L 32.984375 0 Z M 14.746094 -37.855469 L 24.757812 -37.855469 C 29.761719 -37.855469 33.191406 -35.25 33.191406 -31.203125 C 33.191406 -27.15625 29.761719 -24.550781 24.757812 -24.550781 L 14.746094 -24.550781 Z M 14.746094 -37.855469 "/></g></g></g><g fill="#ffffff" fill-opacity="1"><g transform="translate(529.992469, 167.086081)"><g><path d="M 40.941406 -37.992188 L 40.941406 -47.113281 L 4.664062 -47.113281 L 4.664062 0 L 40.941406 0 L 40.941406 -9.121094 L 14.8125 -9.121094 L 14.8125 -19.476562 L 38.472656 -19.476562 L 38.472656 -28.597656 L 14.8125 -28.597656 L 14.8125 -37.992188 Z M 40.941406 -37.992188 "/></g></g></g><g fill="#ffffff" fill-opacity="1"><g transform="translate(573.944163, 167.086081)"><g><path d="M 39.226562 0 L 50.609375 0 L 31.410156 -47.113281 L 20.09375 -47.113281 L 0.890625 0 L 12.207031 0 L 15.222656 -7.40625 L 36.207031 -7.40625 Z M 18.722656 -15.980469 L 25.714844 -33.191406 L 32.710938 -15.980469 Z M 18.722656 -15.980469 "/></g></g></g><g fill="#ffffff" fill-opacity="1"><g transform="translate(625.438291, 167.086081)"><g><path d="M 5.074219 0 L 15.15625 0 L 15.15625 -29.351562 L 29.761719 -2.742188 L 44.300781 -29.351562 L 44.300781 0 L 54.449219 0 L 54.449219 -47.113281 L 44.300781 -47.113281 L 29.761719 -20.503906 L 15.15625 -47.113281 L 5.074219 -47.113281 Z M 5.074219 0 "/></g></g></g><g fill="#ffffff" fill-opacity="1"><g transform="translate(684.89065, 167.086081)"><g/></g></g></svg>