<svg width="72" height="72" viewBox="0 0 72 72" fill="none" xmlns="http://www.w3.org/2000/svg">
<rect width="72" height="72" rx="36" fill="black"/>
<path d="M57.375 25.6153V33.261C56.9639 33.261 56.4707 33.3432 55.9774 33.3432C52.2779 33.3432 48.825 31.9456 46.1942 29.7259V46.0037C46.1942 49.2922 45.1255 52.4162 43.2346 54.8826C40.6039 58.4177 36.3289 60.8018 31.4784 60.8018C26.2169 60.8018 21.613 58.0066 19.0645 53.896C21.6952 56.3624 25.2303 57.9244 29.0943 57.9244C33.8625 57.9244 38.1375 55.6225 40.7683 52.0052C42.5769 49.5388 43.7279 46.497 43.7279 43.1263V26.7662C46.3587 29.0682 49.7293 30.3836 53.5111 30.3836C54.0043 30.3836 54.4154 30.3836 54.9087 30.3013V25.3687C55.6486 25.5331 56.3062 25.6153 57.0462 25.6153H57.375V25.6153Z" fill="#FF004F"/>
<path d="M33.5337 31.2878V39.7556C32.9582 39.5911 32.3005 39.5089 31.725 39.5089C28.1077 39.5089 25.1481 42.5507 25.1481 46.2503C25.1481 47.0724 25.3125 47.8123 25.5591 48.5522C23.9149 47.319 22.7639 45.3459 22.7639 43.1262C22.7639 39.4267 25.7236 36.3849 29.3409 36.3849C29.9986 36.3849 30.574 36.4671 31.1495 36.6315V31.2056C31.3139 31.2056 31.4784 31.2056 31.6428 31.2056C32.3005 31.2056 32.9582 31.2056 33.5337 31.2878Z" fill="#FF004F"/>
<path d="M47.4275 19.5315C45.9477 18.2161 44.8789 16.4075 44.3035 14.5166H46.2765C46.2765 14.9277 46.2765 15.2565 46.2765 15.6676C46.441 16.9829 46.852 18.2983 47.4275 19.5315Z" fill="#FF004F"/>
<path d="M54.9909 25.4507V30.3834C54.5799 30.4656 54.0866 30.4656 53.5933 30.4656C49.8938 30.4656 46.4409 29.068 43.8102 26.8483V43.1262C43.8102 46.4147 42.7414 49.5387 40.8505 52.005C38.1376 55.6223 33.9448 57.9243 29.1765 57.9243C25.3126 57.9243 21.7775 56.3622 19.1467 53.8959C17.7491 51.594 16.927 48.9632 16.927 46.0858C16.927 38.1113 23.2573 31.6166 31.1496 31.37V36.7959C30.5741 36.6315 29.9164 36.5493 29.3409 36.5493C25.7236 36.5493 22.764 39.5911 22.764 43.2906C22.764 45.5103 23.8328 47.5656 25.5592 48.7166C26.4635 51.2651 28.9299 53.156 31.7251 53.156C35.3424 53.156 38.302 50.1142 38.302 46.4147V14.5166H44.3034C44.8789 16.4897 45.9477 18.2161 47.4275 19.5315C48.9073 22.4911 51.7025 24.7108 54.9909 25.4507Z" fill="white"/>
<path d="M31.1495 28.4105V31.2057C23.2572 31.4523 16.9269 37.947 16.9269 45.9216C16.9269 48.799 17.749 51.4297 19.1466 53.7317C16.3514 51.0187 14.625 47.2369 14.625 42.9619C14.625 34.823 21.2019 28.2461 29.2586 28.2461C29.9163 28.2461 30.574 28.3283 31.1495 28.4105Z" fill="#00F7EF"/>
<path d="M44.3034 14.5168H38.302V46.2504C38.302 49.9499 35.3424 52.9918 31.7251 52.9918C28.8476 52.9918 26.4635 51.1831 25.5592 48.5523C26.6279 49.2923 27.9433 49.7855 29.3409 49.7855C32.9582 49.7855 35.9178 46.8259 35.9178 43.1264V11.3105H43.8923V11.475C43.8923 11.8038 43.8924 12.1327 43.9746 12.4615C43.9746 13.1192 44.139 13.8591 44.3034 14.5168Z" fill="#00F7EF"/>
<path d="M54.9909 22.4091V25.3688C51.7024 24.7111 48.9072 22.4914 47.3452 19.5317C49.4005 21.4226 52.0312 22.4914 54.9909 22.4091Z" fill="#00F7EF"/>
</svg>
